<?xml version="1.0" encoding="UTF-8"?>
<!-- Generator: Adobe Illustrator 23.0.2, SVG Export Plug-In . SVG Version: 6.00 Build 0)  -->
<svg version="1.1" id="Layer_1" xmlns="http://www.w3.org/2000/svg" xmlns:xlink="http://www.w3.org/1999/xlink" x="0px" y="0px" viewBox="0 0 80 50" style="enable-background:new 0 0 80 50;" xml:space="preserve">
<style type="text/css">
	.st0{fill:#221F1F;}
	.st1{fill:#40301D;}
	.st2{fill:#4A3925;}
	.st3{fill:#8B704A;}
	.st4{fill:#DCC296;}
	.st5{fill:#6A5536;}
	.st6{fill:#C39A63;}
	.st7{fill:#644F39;}
	.st8{fill:#362718;}
	.st9{fill:#B18C5A;}
	.st10{fill:#5C492B;}
	.st11{fill:#8F7F68;}
	.st12{fill:#947C5B;}
	.st13{display:none;opacity:0.6;fill:url(#SVGID_1_);enable-background:new    ;}
</style>
<g>
	<g>
		<polygon class="st0" points="1.8,1.9 9.4,1.9 5.6,9.6   "/>
		<polygon class="st1" points="13.2,9.6 5.6,9.6 9.4,1.9   "/>
		<polygon class="st0" points="9.4,1.9 17.1,1.9 13.2,9.6   "/>
		<polygon class="st2" points="20.9,9.6 13.2,9.6 17.1,1.9   "/>
		<polygon class="st3" points="36.3,9.6 28.6,9.6 32.4,1.9   "/>
		<polygon class="st4" points="32.4,1.9 40.1,1.9 36.3,9.6   "/>
		<polygon class="st3" points="43.9,9.6 36.3,9.6 40.1,1.9   "/>
		<polygon class="st5" points="40.1,1.9 47.8,1.9 43.9,9.6   "/>
		<polygon class="st6" points="51.6,9.6 43.9,9.6 47.8,1.9   "/>
		<polygon class="st1" points="67,9.6 59.2,9.6 63.1,1.9   "/>
		<polygon class="st0" points="63.1,1.9 70.8,1.9 67,9.6   "/>
		<polygon class="st1" points="74.6,9.6 67,9.6 70.8,1.9   "/>
		<polygon class="st0" points="70.8,1.9 78.4,1.9 74.6,9.6   "/>
		<polygon class="st7" points="5.6,9.6 13.2,9.6 9.4,17.3   "/>
		<polygon class="st8" points="17.1,17.3 9.4,17.3 13.2,9.6   "/>
		<polygon class="st3" points="13.2,9.6 20.9,9.6 17.1,17.3   "/>
		<polygon class="st2" points="24.7,17.3 17.1,17.3 20.9,9.6   "/>
		<polygon class="st4" points="32.4,17.3 24.7,17.3 28.6,9.6   "/>
		<polygon class="st6" points="28.6,9.6 36.3,9.6 32.4,17.3   "/>
		<polygon class="st3" points="40.1,17.3 32.4,17.3 36.3,9.6   "/>
		<polygon class="st4" points="36.3,9.6 43.9,9.6 40.1,17.3   "/>
		<polygon class="st9" points="47.8,17.3 40.1,17.3 43.9,9.6   "/>
		<polygon class="st10" points="43.9,9.6 51.6,9.6 47.8,17.3   "/>
		<polygon class="st3" points="55.4,17.3 47.8,17.3 51.6,9.6   "/>
		<polygon class="st3" points="63.1,17.3 55.4,17.3 59.2,9.6   "/>
		<polygon class="st0" points="59.2,9.6 67,9.6 63.1,17.3   "/>
		<polygon class="st1" points="70.8,17.3 63.1,17.3 67,9.6   "/>
		<polygon class="st0" points="67,9.6 74.6,9.6 70.8,17.3   "/>
		<polygon class="st3" points="9.4,17.3 17.1,17.3 13.2,25   "/>
		<polygon class="st7" points="20.9,25 13.2,25 17.1,17.3   "/>
		<polygon class="st6" points="17.1,17.3 24.7,17.3 20.9,25   "/>
		<polygon class="st1" points="28.6,25 20.9,25 24.7,17.3   "/>
		<polygon class="st6" points="24.7,17.3 32.4,17.3 28.6,25   "/>
		<polygon class="st4" points="36.3,25 28.6,25 32.4,17.3   "/>
		<polygon class="st6" points="32.4,17.3 40.1,17.3 36.3,25   "/>
		<polygon class="st10" points="40.1,17.3 47.8,17.3 43.9,25   "/>
		<polygon class="st3" points="51.6,25 43.9,25 47.8,17.3   "/>
		<polygon class="st10" points="47.8,17.3 55.4,17.3 51.6,25   "/>
		<polygon class="st11" points="59.2,25 51.6,25 55.4,17.3   "/>
		<polygon class="st0" points="55.4,17.3 63.1,17.3 59.2,25   "/>
		<polygon class="st7" points="67,25 59.2,25 63.1,17.3   "/>
		<polygon class="st0" points="63.1,17.3 70.8,17.3 67,25   "/>
		<polygon class="st1" points="13.2,25 20.9,25 17.1,32.8   "/>
		<polygon class="st6" points="24.7,32.8 17.1,32.8 20.9,25   "/>
		<polygon class="st11" points="20.9,25 28.6,25 24.7,32.8   "/>
		<polygon class="st4" points="32.4,32.8 24.7,32.8 28.6,25   "/>
		<polygon class="st6" points="28.6,25 36.3,25 32.4,32.8   "/>
		<polygon class="st8" points="43.9,25 51.6,25 47.8,32.8   "/>
		<polygon class="st12" points="55.4,32.8 47.8,32.8 51.6,25   "/>
		<polygon class="st1" points="51.6,25 59.2,25 55.4,32.8   "/>
		<polygon class="st3" points="63.1,32.8 55.4,32.8 59.2,25   "/>
		<polygon class="st1" points="59.2,25 67,25 63.1,32.8   "/>
		<polygon class="st3" points="17.1,32.8 24.7,32.8 20.9,40.5   "/>
		<polygon class="st7" points="28.6,40.5 20.9,40.5 24.7,32.8   "/>
		<polygon class="st3" points="24.7,32.8 32.4,32.8 28.6,40.5   "/>
		<polygon class="st1" points="47.8,32.8 55.4,32.8 51.6,40.5   "/>
		<polygon class="st7" points="59.2,40.5 51.6,40.5 55.4,32.8   "/>
		<polygon class="st1" points="55.4,32.8 63.1,32.8 59.2,40.5   "/>
		<polygon class="st1" points="20.9,40.5 28.6,40.5 24.7,48.2   "/>
		<polygon class="st1" points="51.6,40.5 59.2,40.5 55.4,48.2   "/>
	</g>
	
		<linearGradient id="SVGID_1_" gradientUnits="userSpaceOnUse" x1="33.7639" y1="-639.6688" x2="59.8349" y2="-698.2255" gradientTransform="matrix(1 0 0 -1 0 -652)">
		<stop offset="0" style="stop-color:#814F3D;stop-opacity:0"/>
		<stop offset="8.366530e-02" style="stop-color:#E8E7E8"/>
		<stop offset="0.1673" style="stop-color:#FFFFFF;stop-opacity:0"/>
		<stop offset="0.2667" style="stop-color:#E8E7E8"/>
		<stop offset="0.3333" style="stop-color:#FFFFFF;stop-opacity:0"/>
		<stop offset="0.3719" style="stop-color:#E8E7E8;stop-opacity:0.42"/>
		<stop offset="0.4424" style="stop-color:#FFFFFF;stop-opacity:0"/>
		<stop offset="0.5515" style="stop-color:#D3D4D5;stop-opacity:0.85"/>
		<stop offset="0.6454" style="stop-color:#321515;stop-opacity:0"/>
		<stop offset="0.7251" style="stop-color:#5E2C1A;stop-opacity:0.1518"/>
		<stop offset="0.7888" style="stop-color:#241010;stop-opacity:0.61"/>
		<stop offset="0.8325" style="stop-color:#FFFFFF;stop-opacity:0.65"/>
		<stop offset="0.9124" style="stop-color:#FFFFFF;stop-opacity:0"/>
		<stop offset="0.9721" style="stop-color:#FFFFFF;stop-opacity:0.69"/>
	</linearGradient>
	<polygon class="st13" points="1.8,1.9 17.1,1.9 24.7,17.3 32.4,1.9 47.8,1.9 55.4,17.3 63.1,1.9 78.4,1.9 55.4,48.2 40.1,17.3    24.7,48.2  "/>
</g>
</svg>